<svg xmlns="http://www.w3.org/2000/svg" viewBox="0 0 20 20" width="20" height="20" shape-rendering="crispEdges"><path fill="#171922" d="M9 1h2v1h-2zM6 2h3v1h-3zM11 2h3v1h-3zM5 3h1v1h-1zM14 3h1v1h-1zM4 4h1v1h-1zM15 4h1v1h-1zM3 5h1v1h-1zM16 5h1v1h-1zM2 6h1v1h-1zM17 6h1v1h-1zM2 7h1v1h-1zM17 7h1v1h-1zM2 8h1v1h-1zM6 8h2v1h-2zM12 8h2v1h-2zM17 8h1v1h-1zM1 9h1v1h-1zM6 9h2v1h-2zM12 9h2v1h-2zM18 9h1v1h-1zM1 10h1v1h-1zM6 10h2v1h-2zM12 10h2v1h-2zM18 10h1v1h-1zM2 11h1v1h-1zM17 11h1v1h-1zM2 12h1v1h-1zM6 12h1v1h-1zM13 12h1v1h-1zM17 12h1v1h-1zM2 13h1v1h-1zM7 13h6v1h-6zM17 13h1v1h-1zM3 14h1v1h-1zM16 14h1v1h-1zM4 15h1v1h-1zM15 15h1v1h-1zM5 16h1v1h-1zM14 16h1v1h-1zM6 17h3v1h-3zM11 17h3v1h-3zM9 18h2v1h-2z"/><path fill="#B8860B" d="M9 2h2v1h-2zM6 3h3v1h-3zM11 3h3v1h-3zM5 4h1v1h-1zM14 4h1v1h-1zM4 5h1v1h-1zM15 5h1v1h-1zM3 6h1v1h-1zM16 6h1v1h-1zM3 7h1v1h-1zM16 7h1v1h-1zM3 8h1v1h-1zM16 8h1v1h-1zM2 9h1v1h-1zM17 9h1v1h-1zM2 10h1v1h-1zM17 10h1v1h-1zM3 11h1v1h-1zM16 11h1v1h-1zM3 12h1v1h-1zM16 12h1v1h-1zM3 13h1v1h-1zM16 13h1v1h-1zM4 14h1v1h-1zM15 14h1v1h-1zM5 15h1v1h-1zM14 15h1v1h-1zM6 16h3v1h-3zM11 16h3v1h-3zM9 17h2v1h-2z"/><path fill="#FFC83D" d="M9 3h2v1h-2zM6 4h8v1h-8zM5 5h1v1h-1zM8 5h7v1h-7zM4 6h1v1h-1zM9 6h7v1h-7zM4 7h1v1h-1zM9 7h7v1h-7zM4 8h2v1h-2zM8 8h4v1h-4zM14 8h2v1h-2zM3 9h3v1h-3zM8 9h4v1h-4zM14 9h3v1h-3zM3 10h3v1h-3zM8 10h4v1h-4zM14 10h3v1h-3zM4 11h12v1h-12zM4 12h2v1h-2zM7 12h6v1h-6zM14 12h2v1h-2zM4 13h3v1h-3zM13 13h3v1h-3zM5 14h10v1h-10zM6 15h8v1h-8zM9 16h2v1h-2z"/><path fill="#FFE08A" d="M6 5h2v1h-2zM5 6h4v1h-4zM5 7h4v1h-4z"/></svg>